<svg data-v-423bf9ae="" xmlns="http://www.w3.org/2000/svg" viewBox="0 0 342.55610024056784 60" class="font"><!----><!----><defs data-v-423bf9ae=""><linearGradient data-v-423bf9ae="" gradientTransform="rotate(25)" id="dd3742b1-6b14-4aa3-8011-73f0cb5be56c" x1="0%" y1="0%" x2="100%" y2="0%"><stop data-v-423bf9ae="" offset="0%" style="stop-color: rgb(81, 6, 255); stop-opacity: 1;"></stop><stop data-v-423bf9ae="" offset="100%" style="stop-color: rgb(97, 203, 242); stop-opacity: 1;"></stop></linearGradient></defs><g data-v-423bf9ae="" id="2a5a1bf0-8f5e-44be-bf1f-be06a468f750" fill="url(#dd3742b1-6b14-4aa3-8011-73f0cb5be56c)" transform="matrix(5.853658536585366,0,0,5.853658536585366,-1.8731769098014297,-14.165854105135288)"><path d="M5.45 12.67L5.45 12.67Q3.26 12.67 1.79 11.20L1.79 11.20L1.79 11.20Q0.32 9.73 0.32 7.55L0.32 7.55L0.32 7.55Q0.32 5.36 1.79 3.89L1.79 3.89L1.79 3.89Q3.26 2.42 5.45 2.42L5.45 2.42L5.45 2.42Q7.64 2.42 9.11 3.89L9.11 3.89L9.11 3.89Q10.58 5.36 10.58 7.55L10.58 7.55L10.58 7.55Q10.58 9.73 9.11 11.20L9.11 11.20L9.11 11.20Q7.64 12.67 5.45 12.67L5.45 12.67ZM5.46 10.76L5.46 10.76L5.46 10.76Q6.82 10.76 7.67 9.84L7.67 9.84L7.67 9.84Q8.52 8.91 8.52 7.55L8.52 7.55L8.52 7.55Q8.52 6.18 7.67 5.26L7.67 5.26L7.67 5.26Q6.82 4.33 5.44 4.33L5.44 4.33L5.44 4.33Q4.08 4.33 3.23 5.26L3.23 5.26L3.23 5.26Q2.37 6.18 2.37 7.55L2.37 7.55L2.37 7.55Q2.37 8.91 3.23 9.84L3.23 9.84L3.23 9.84Q4.08 10.76 5.46 10.76ZM13.86 12.67L11.94 12.67L11.94 2.42L13.86 2.42L13.86 12.67ZM16.74 7.82L15.99 6.66L15.99 6.66Q17.29 5.84 19.00 5.84L19.00 5.84L19.00 5.84Q20.23 5.84 20.95 6.52L20.95 6.52L20.95 6.52Q21.66 7.21 21.66 8.57L21.66 8.57L21.66 12.67L19.75 12.67L19.75 12.13L19.75 12.13Q18.92 12.67 18.25 12.67L18.25 12.67L18.25 12.67Q16.88 12.67 16.19 12.09L16.19 12.09L16.19 12.09Q15.51 11.51 15.51 10.49L15.51 10.49L15.51 10.49Q15.51 9.53 16.16 8.78L16.16 8.78L16.16 8.78Q16.80 8.03 18.25 8.03L18.25 8.03L18.25 8.03Q18.91 8.03 19.75 8.44L19.75 8.44L19.75 8.23L19.75 8.23Q19.74 7.48 18.66 7.41L18.66 7.41L18.66 7.41Q17.42 7.41 16.74 7.82L16.74 7.82ZM19.75 10.62L19.75 10.62L19.75 9.85L19.75 9.85Q19.48 9.32 18.45 9.32L18.45 9.32L18.45 9.32Q17.22 9.46 17.15 10.28L17.15 10.28L17.15 10.28Q17.22 11.09 18.45 11.16L18.45 11.16L18.45 11.16Q19.48 11.16 19.75 10.62ZM23.55 12.67L23.55 2.42L25.60 2.42L25.60 8.22L27.56 5.84L29.87 5.84L27.31 8.91L30.55 12.67L27.88 12.67L25.60 9.95L25.60 12.67L23.55 12.67ZM32.46 7.82L31.71 6.66L31.71 6.66Q33.00 5.84 34.71 5.84L34.71 5.84L34.71 5.84Q35.94 5.84 36.66 6.52L36.66 6.52L36.66 6.52Q37.38 7.21 37.38 8.57L37.38 8.57L37.38 12.67L35.46 12.67L35.46 12.13L35.46 12.13Q34.63 12.67 33.96 12.67L33.96 12.67L33.96 12.67Q32.59 12.67 31.91 12.09L31.91 12.09L31.91 12.09Q31.23 11.51 31.23 10.49L31.23 10.49L31.23 10.49Q31.23 9.53 31.87 8.78L31.87 8.78L31.87 8.78Q32.52 8.03 33.96 8.03L33.96 8.03L33.96 8.03Q34.62 8.03 35.46 8.44L35.46 8.44L35.46 8.23L35.46 8.23Q35.45 7.48 34.37 7.41L34.37 7.41L34.37 7.41Q33.14 7.41 32.46 7.82L32.46 7.82ZM35.46 10.62L35.46 10.62L35.46 9.85L35.46 9.85Q35.19 9.32 34.17 9.32L34.17 9.32L34.17 9.32Q32.94 9.46 32.87 10.28L32.87 10.28L32.87 10.28Q32.94 11.09 34.17 11.16L34.17 11.16L34.17 11.16Q35.19 11.16 35.46 10.62ZM39.03 11.72L39.03 11.72L39.03 11.72Q39.03 12.13 39.30 12.40L39.30 12.40L39.30 12.40Q39.57 12.67 40.05 12.67L40.05 12.67L40.05 12.67Q40.53 12.67 40.80 12.40L40.80 12.40L40.80 12.40Q41.08 12.13 41.08 11.72L41.08 11.72L41.08 11.72Q41.08 11.31 40.80 11.03L40.80 11.03L40.80 11.03Q40.53 10.75 40.04 10.75L40.04 10.75L40.04 10.75Q39.57 10.75 39.30 11.03L39.30 11.03L39.30 11.03Q39.03 11.31 39.03 11.72ZM44.97 12.67L43.06 12.67L43.06 2.42L44.97 2.42L44.97 12.67ZM51.19 12.35L51.19 12.35Q50.70 12.67 50.07 12.67L50.07 12.67L50.07 12.67Q48.90 12.67 48.22 12.02L48.22 12.02L48.22 12.02Q47.54 11.38 47.54 10.35L47.54 10.35L47.54 7.39L46.51 7.39L46.51 5.84L47.54 5.84L47.54 3.99L49.46 3.79L49.46 5.84L50.48 5.84L50.48 7.39L49.46 7.39L49.46 10.08L49.46 10.08Q49.46 10.62 49.69 10.85L49.69 10.85L49.69 10.85Q49.92 11.07 50.28 11.07L50.28 11.07L50.28 11.07Q50.39 11.07 50.79 10.98L50.79 10.98L51.19 12.35ZM56.93 2.42L58.84 2.43L58.84 12.67L56.93 12.67L56.93 12.13L56.93 12.13Q56.16 12.67 55.43 12.67L55.43 12.67L55.43 12.67Q53.85 12.67 52.93 11.65L52.93 11.65L52.93 11.65Q52.01 10.62 52.01 9.26L52.01 9.26L52.01 9.26Q52.01 7.89 52.93 6.86L52.93 6.86L52.93 6.86Q53.85 5.84 55.43 5.84L55.43 5.84L55.43 5.84Q56.45 5.91 56.93 6.39L56.93 6.39L56.93 2.42ZM56.93 9.87L56.93 9.87L56.93 8.76L56.93 8.76Q56.79 7.62 55.49 7.42L55.49 7.42L55.49 7.42Q53.85 7.55 53.65 9.12L53.65 9.12L53.65 9.12Q53.72 11.03 55.49 11.10L55.49 11.10L55.49 11.10Q56.79 10.90 56.93 9.87Z"></path></g><!----><!----></svg>